<mxfile host="Electron" modified="2023-12-09T08:46:04.338Z" agent="Mozilla/5.0 (X11; Linux x86_64) AppleWebKit/537.36 (KHTML, like Gecko) draw.io/22.1.2 Chrome/114.0.5735.289 Electron/25.9.4 Safari/537.36" etag="UVbJN8dNKCf3-d0EfWR3" version="22.1.2" type="device">
  <diagram name="Page-1" id="Nv8vaJcM4QDIebQTit32">
    <mxGraphModel dx="1434" dy="783" grid="1" gridSize="10" guides="1" tooltips="1" connect="1" arrows="1" fold="1" page="1" pageScale="1" pageWidth="827" pageHeight="1169" math="0" shadow="0">
      <root>
        <mxCell id="0" />
        <mxCell id="1" parent="0" />
        <mxCell id="U89-XinEpID29-nTmkhM-2" value="" style="edgeStyle=none;orthogonalLoop=1;jettySize=auto;html=1;rounded=0;entryX=0;entryY=0.25;entryDx=0;entryDy=0;" edge="1" parent="1">
          <mxGeometry width="100" relative="1" as="geometry">
            <mxPoint x="24.49000000000001" y="272.24" as="sourcePoint" />
            <mxPoint x="189.00371727748694" y="271.86" as="targetPoint" />
            <Array as="points" />
          </mxGeometry>
        </mxCell>
        <mxCell id="U89-XinEpID29-nTmkhM-3" value="Squad&lt;br&gt;Logged in" style="text;html=1;align=center;verticalAlign=middle;resizable=0;points=[];autosize=1;strokeColor=none;fillColor=none;" vertex="1" parent="1">
          <mxGeometry x="71.80999999999999" y="230" width="80" height="40" as="geometry" />
        </mxCell>
        <mxCell id="U89-XinEpID29-nTmkhM-4" value="" style="edgeStyle=none;orthogonalLoop=1;jettySize=auto;html=1;rounded=0;" edge="1" parent="1">
          <mxGeometry width="100" relative="1" as="geometry">
            <mxPoint x="185.49" y="319.38" as="sourcePoint" />
            <mxPoint x="25.49000000000001" y="319.38" as="targetPoint" />
            <Array as="points" />
          </mxGeometry>
        </mxCell>
        <mxCell id="U89-XinEpID29-nTmkhM-5" value="Squad&lt;br&gt;Logged out" style="text;html=1;align=center;verticalAlign=middle;resizable=0;points=[];autosize=1;strokeColor=none;fillColor=none;" vertex="1" parent="1">
          <mxGeometry x="73.80999999999999" y="321.42" width="80" height="40" as="geometry" />
        </mxCell>
        <mxCell id="jsPVeI7ytuAK9CtYSdAV-10" value="" style="edgeStyle=none;orthogonalLoop=1;jettySize=auto;html=1;rounded=0;entryX=0.073;entryY=0.761;entryDx=0;entryDy=0;entryPerimeter=0;" parent="1" target="zB5RQNQVIBqfSYqidaWU-1" edge="1">
          <mxGeometry width="100" relative="1" as="geometry">
            <mxPoint x="206.23376623376623" y="291" as="sourcePoint" />
            <mxPoint x="378.941107609185" y="215.24688644336499" as="targetPoint" />
            <Array as="points" />
          </mxGeometry>
        </mxCell>
        <mxCell id="zB5RQNQVIBqfSYqidaWU-1" value="Response Complaint" style="ellipse;whiteSpace=wrap;html=1;" parent="1" vertex="1">
          <mxGeometry x="361.0612336785233" y="120.6" width="138.67627194957225" height="112.86430511434824" as="geometry" />
        </mxCell>
        <mxCell id="zB5RQNQVIBqfSYqidaWU-6" value="" style="edgeStyle=none;orthogonalLoop=1;jettySize=auto;html=1;rounded=0;exitX=0.004;exitY=0.436;exitDx=0;exitDy=0;exitPerimeter=0;" parent="1" source="zB5RQNQVIBqfSYqidaWU-1" edge="1">
          <mxGeometry width="100" relative="1" as="geometry">
            <mxPoint x="354.79513732552914" y="176.94114424839466" as="sourcePoint" />
            <mxPoint x="180" y="260" as="targetPoint" />
            <Array as="points" />
          </mxGeometry>
        </mxCell>
        <mxCell id="zB5RQNQVIBqfSYqidaWU-12" value="0.3.1" style="text;html=1;align=center;verticalAlign=middle;resizable=0;points=[];autosize=1;strokeColor=none;fillColor=none;" parent="1" vertex="1">
          <mxGeometry x="404.64520486267475" y="193.9617983243263" width="50" height="30" as="geometry" />
        </mxCell>
        <mxCell id="v7KHOAzaiJnz43zt4m3B-2" value="Complaint" style="shape=partialRectangle;whiteSpace=wrap;html=1;left=0;right=0;fillColor=none;" parent="1" vertex="1">
          <mxGeometry x="621.7019360648362" y="284.6389682291491" width="178.29806393516444" height="74.06720023129103" as="geometry" />
        </mxCell>
        <mxCell id="v7KHOAzaiJnz43zt4m3B-12" value="Response&lt;br style=&quot;font-size: 12px;&quot;&gt;Added" style="text;html=1;align=center;verticalAlign=middle;resizable=0;points=[];autosize=1;strokeColor=none;fillColor=none;rotation=34;fontSize=12;" parent="1" vertex="1">
          <mxGeometry x="505.5070899384276" y="233.74765698307786" width="80" height="40" as="geometry" />
        </mxCell>
        <mxCell id="v7KHOAzaiJnz43zt4m3B-14" value="" style="edgeStyle=none;orthogonalLoop=1;jettySize=auto;html=1;rounded=0;entryX=0.31;entryY=-0.009;entryDx=0;entryDy=0;exitX=0.971;exitY=0.325;exitDx=0;exitDy=0;exitPerimeter=0;entryPerimeter=0;" parent="1" target="v7KHOAzaiJnz43zt4m3B-2" edge="1">
          <mxGeometry width="100" relative="1" as="geometry">
            <mxPoint x="495.7753264295366" y="155.88420338637314" as="sourcePoint" />
            <mxPoint x="622.5650607834311" y="157.11865672356112" as="targetPoint" />
            <Array as="points" />
          </mxGeometry>
        </mxCell>
        <mxCell id="v7KHOAzaiJnz43zt4m3B-15" value="Add&lt;br style=&quot;font-size: 12px;&quot;&gt;Response" style="text;html=1;align=center;verticalAlign=middle;resizable=0;points=[];autosize=1;strokeColor=none;fillColor=none;rotation=33;fontSize=12;" parent="1" vertex="1">
          <mxGeometry x="551.3749843582802" y="176.8392414026735" width="80" height="40" as="geometry" />
        </mxCell>
        <mxCell id="v7KHOAzaiJnz43zt4m3B-16" value="" style="edgeStyle=none;orthogonalLoop=1;jettySize=auto;html=1;rounded=0;exitX=0;exitY=0;exitDx=0;exitDy=0;entryX=0.964;entryY=0.675;entryDx=0;entryDy=0;entryPerimeter=0;" parent="1" source="v7KHOAzaiJnz43zt4m3B-2" edge="1">
          <mxGeometry width="100" relative="1" as="geometry">
            <mxPoint x="622.5650607834311" y="194.1522568392067" as="sourcePoint" />
            <mxPoint x="494.7847816298963" y="195.38671017639496" as="targetPoint" />
            <Array as="points" />
          </mxGeometry>
        </mxCell>
        <mxCell id="v7KHOAzaiJnz43zt4m3B-19" value="" style="ellipse;whiteSpace=wrap;html=1;align=center;aspect=fixed;fillColor=none;strokeColor=none;resizable=0;perimeter=centerPerimeter;rotatable=0;allowArrows=0;points=[];outlineConnect=1;" parent="1" vertex="1">
          <mxGeometry x="333.4565511031068" y="237.9654158991976" width="10" height="10" as="geometry" />
        </mxCell>
        <mxCell id="v7KHOAzaiJnz43zt4m3B-23" value="" style="endArrow=none;html=1;rounded=0;entryX=0;entryY=0;entryDx=0;entryDy=0;exitX=0;exitY=1;exitDx=0;exitDy=0;" parent="1" source="v7KHOAzaiJnz43zt4m3B-2" target="v7KHOAzaiJnz43zt4m3B-2" edge="1">
          <mxGeometry width="50" height="50" relative="1" as="geometry">
            <mxPoint x="607.8343088698787" y="252.5431814622564" as="sourcePoint" />
            <mxPoint x="607.8343088698787" y="179.1813831379299" as="targetPoint" />
          </mxGeometry>
        </mxCell>
        <mxCell id="v7KHOAzaiJnz43zt4m3B-24" value="" style="endArrow=none;html=1;rounded=0;entryX=0.25;entryY=0;entryDx=0;entryDy=0;exitX=0.25;exitY=1;exitDx=0;exitDy=0;" parent="1" source="v7KHOAzaiJnz43zt4m3B-2" target="v7KHOAzaiJnz43zt4m3B-2" edge="1">
          <mxGeometry width="50" height="50" relative="1" as="geometry">
            <mxPoint x="617.7397568662763" y="182.00299076578864" as="sourcePoint" />
            <mxPoint x="617.7397568662763" y="108.64119244146235" as="targetPoint" />
          </mxGeometry>
        </mxCell>
        <mxCell id="QhkLC9uYvlduANRtMDwW-14" value="" style="edgeStyle=none;orthogonalLoop=1;jettySize=auto;html=1;rounded=0;exitX=0.107;exitY=0.175;exitDx=0;exitDy=0;exitPerimeter=0;" parent="1" source="QhkLC9uYvlduANRtMDwW-17" edge="1">
          <mxGeometry width="100" relative="1" as="geometry">
            <mxPoint x="378.0295613224995" y="420.4093347816291" as="sourcePoint" />
            <mxPoint x="206.23376623376623" y="301" as="targetPoint" />
            <Array as="points" />
          </mxGeometry>
        </mxCell>
        <mxCell id="QhkLC9uYvlduANRtMDwW-17" value="Notification" style="ellipse;whiteSpace=wrap;html=1;" parent="1" vertex="1">
          <mxGeometry x="360.1972534894193" y="408.1356948856517" width="138.67627194957225" height="112.86430511434824" as="geometry" />
        </mxCell>
        <mxCell id="QhkLC9uYvlduANRtMDwW-18" value="" style="edgeStyle=none;orthogonalLoop=1;jettySize=auto;html=1;rounded=0;entryX=0;entryY=0.5;entryDx=0;entryDy=0;" parent="1" target="QhkLC9uYvlduANRtMDwW-17" edge="1">
          <mxGeometry width="100" relative="1" as="geometry">
            <mxPoint x="180" y="330" as="sourcePoint" />
            <mxPoint x="350.2918054930213" y="444.75172646412034" as="targetPoint" />
            <Array as="points" />
          </mxGeometry>
        </mxCell>
        <mxCell id="QhkLC9uYvlduANRtMDwW-19" value="0.3.2" style="text;html=1;align=center;verticalAlign=middle;resizable=0;points=[];autosize=1;strokeColor=none;fillColor=none;" parent="1" vertex="1">
          <mxGeometry x="404.7717694732104" y="478.67588558211946" width="50" height="30" as="geometry" />
        </mxCell>
        <mxCell id="QhkLC9uYvlduANRtMDwW-20" value="Notification&lt;br style=&quot;font-size: 12px;&quot;&gt;Added" style="text;html=1;align=center;verticalAlign=middle;resizable=0;points=[];autosize=1;strokeColor=none;fillColor=none;rotation=-36;fontSize=12;" parent="1" vertex="1">
          <mxGeometry x="541.7915834011737" y="428.7588933252175" width="80" height="40" as="geometry" />
        </mxCell>
        <mxCell id="QhkLC9uYvlduANRtMDwW-22" value="" style="edgeStyle=none;orthogonalLoop=1;jettySize=auto;html=1;rounded=0;entryX=0;entryY=1;entryDx=0;entryDy=0;exitX=0.971;exitY=0.325;exitDx=0;exitDy=0;exitPerimeter=0;" parent="1" source="QhkLC9uYvlduANRtMDwW-17" target="v7KHOAzaiJnz43zt4m3B-2" edge="1">
          <mxGeometry width="100" relative="1" as="geometry">
            <mxPoint x="502.83570463755086" y="446.2273978617443" as="sourcePoint" />
            <mxPoint x="621.7010805943269" y="446.0510473850029" as="targetPoint" />
            <Array as="points" />
          </mxGeometry>
        </mxCell>
        <mxCell id="QhkLC9uYvlduANRtMDwW-23" value="Add&lt;br style=&quot;font-size: 12px;&quot;&gt;Notification" style="text;html=1;align=center;verticalAlign=middle;resizable=0;points=[];autosize=1;strokeColor=none;fillColor=none;fontSize=12;rotation=-34;" parent="1" vertex="1">
          <mxGeometry x="501.087569656818" y="369.59046276670205" width="80" height="40" as="geometry" />
        </mxCell>
        <mxCell id="QhkLC9uYvlduANRtMDwW-24" value="" style="edgeStyle=none;orthogonalLoop=1;jettySize=auto;html=1;rounded=0;entryX=0.964;entryY=0.675;entryDx=0;entryDy=0;entryPerimeter=0;exitX=0.293;exitY=1.044;exitDx=0;exitDy=0;exitPerimeter=0;" parent="1" source="v7KHOAzaiJnz43zt4m3B-2" target="QhkLC9uYvlduANRtMDwW-17" edge="1">
          <mxGeometry width="100" relative="1" as="geometry">
            <mxPoint x="660" y="370" as="sourcePoint" />
            <mxPoint x="512.7411526339486" y="492.783923721413" as="targetPoint" />
            <Array as="points" />
          </mxGeometry>
        </mxCell>
        <mxCell id="QhkLC9uYvlduANRtMDwW-27" value="Update&lt;br style=&quot;font-size: 12px;&quot;&gt;Notification" style="text;html=1;align=center;verticalAlign=middle;resizable=0;points=[];autosize=1;strokeColor=none;fillColor=none;rotation=34;fontSize=12;" parent="1" vertex="1">
          <mxGeometry x="209.99589075939818" y="387.7584156335125" width="80" height="40" as="geometry" />
        </mxCell>
        <mxCell id="QhkLC9uYvlduANRtMDwW-28" value="View&lt;br style=&quot;font-size: 12px;&quot;&gt;Notification" style="text;html=1;align=center;verticalAlign=middle;resizable=0;points=[];autosize=1;strokeColor=none;fillColor=none;rotation=36;fontSize=12;" parent="1" vertex="1">
          <mxGeometry x="266.27040762029503" y="328.9982296200305" width="80" height="40" as="geometry" />
        </mxCell>
        <mxCell id="QhkLC9uYvlduANRtMDwW-32" value="View Response" style="text;html=1;align=center;verticalAlign=middle;resizable=0;points=[];autosize=1;strokeColor=none;fillColor=none;rotation=-27;fontSize=12;" parent="1" vertex="1">
          <mxGeometry x="209.8687791272213" y="188.6875360705153" width="110" height="30" as="geometry" />
        </mxCell>
        <mxCell id="QhkLC9uYvlduANRtMDwW-34" value="Add Response" style="text;html=1;align=center;verticalAlign=middle;resizable=0;points=[];autosize=1;strokeColor=none;fillColor=none;rotation=-29;fontSize=12;" parent="1" vertex="1">
          <mxGeometry x="252.54049819408482" y="240.67871519161227" width="100" height="30" as="geometry" />
        </mxCell>
      </root>
    </mxGraphModel>
  </diagram>
</mxfile>
